/* XPM */
static char *_5a5b51aa4b04d37fed575a3da60302dOPAPQFQSNeyFaZ9x[] = {
/* columns rows colors chars-per-pixel */
"64 64 232 2 ",
"   c #4B4131",
".  c #524936",
"X  c #4B402E",
"o  c #7E7B34",
"O  c #625A47",
"+  c #78734F",
"@  c #946837",
"#  c #D44C3D",
"$  c #EC4C3E",
"%  c #FF453D",
"&  c #FF4C3D",
"*  c #FE5239",
"=  c #FF5B3B",
"-  c #FF5B36",
";  c #FF7D2A",
":  c #FE6837",
">  c #FF3F41",
",  c #907252",
"<  c #EF4643",
"1  c #FF4342",
"2  c #FF4A43",
"3  c #FF4B49",
"4  c #FE5246",
"5  c #FE534B",
"6  c #FC5C4A",
"7  c #FF5B51",
"8  c #FC6548",
"9  c #FF6551",
"0  c #FE6A54",
"q  c #FE7253",
"w  c #FE7A56",
"e  c #FE7E59",
"r  c #FB7856",
"t  c #F26C4F",
"y  c #D7734F",
"u  c #5E9A3D",
"i  c #54963F",
"p  c #639C3C",
"a  c #6A9E39",
"s  c #789C37",
"d  c #6DA139",
"f  c #76A436",
"g  c #4A8F46",
"h  c #4B8F49",
"j  c #479145",
"k  c #499147",
"l  c #4A9148",
"z  c #469248",
"x  c #539443",
"c  c #52964E",
"v  c #5B9742",
"b  c #589B55",
"n  c #6F9553",
"m  c #5DA059",
"M  c #69A668",
"N  c #76AB75",
"B  c #7DB27C",
"V  c #ACBC1F",
"C  c #B1BD1B",
"Z  c #9F832F",
"A  c #A39E29",
"S  c #88AC2D",
"D  c #97AF28",
"F  c #99B227",
"G  c #8FAB33",
"H  c #ACB725",
"J  c #FC9A1E",
"K  c #C5BB1C",
"L  c #D7BD1B",
"P  c #FFB90E",
"I  c #FDA51A",
"U  c #FDBA17",
"Y  c #E7BB12",
"T  c #D49E3E",
"R  c #FF8C24",
"E  c #FC8423",
"W  c #FD9226",
"Q  c #FF893C",
"!  c #FE9D3D",
"~  c #FC963E",
"^  c #CAB726",
"/  c #D6BC22",
"(  c #C3AF32",
")  c #D4A62D",
"_  c #FFAC2E",
"`  c #F1AC2D",
"'  c #FDB727",
"]  c #FFA533",
"[  c #FAA635",
"{  c #FFBC35",
"}  c #E9AE2C",
"|  c #BCC11A",
" . c #B3C01B",
".. c #D8CC0E",
"X. c #DCD10E",
"o. c #C7C615",
"O. c #DDC31C",
"+. c #D9C814",
"@. c #EDCF0E",
"#. c #E4CD0C",
"$. c #E3D20C",
"%. c #ECD30A",
"&. c #ECD607",
"*. c #F4D706",
"=. c #F5DA04",
"-. c #FEDE01",
";. c #F4D50A",
":. c #F5D808",
">. c #FEDE0A",
",. c #FED408",
"<. c #E5CC12",
"1. c #EACD11",
"2. c #E2C619",
"3. c #E3C717",
"4. c #FFCB16",
"5. c #F9DA14",
"6. c #FFCE0F",
"7. c #FEE001",
"8. c #FFE10E",
"9. c #FFE113",
"0. c #FCE11E",
"q. c #D5C727",
"w. c #EFD427",
"e. c #FFD336",
"r. c #EDD12F",
"t. c #FEE424",
"y. c #FFE32D",
"u. c #FFE63A",
"i. c #FCE637",
"p. c #94894C",
"a. c #A98F4F",
"s. c #83A25E",
"d. c #8EB74D",
"f. c #A0B941",
"g. c #88AB73",
"h. c #ACA872",
"j. c #958E62",
"k. c #FF854E",
"l. c #FE8B4C",
"z. c #FE9443",
"x. c #FF9A42",
"c. c #FE9249",
"v. c #FE8454",
"b. c #FE815A",
"n. c #FE8B57",
"m. c #FF9756",
"M. c #ED924C",
"N. c #C1A856",
"B. c #C8B743",
"V. c #FFB74A",
"C. c #FFA654",
"Z. c #FEB052",
"A. c #FE8963",
"S. c #FF956D",
"D. c #F6986D",
"F. c #CEBD78",
"G. c #FFB468",
"H. c #FFA47A",
"J. c #FFAE74",
"K. c #D38253",
"L. c #B0C54E",
"P. c #FED847",
"I. c #FCE845",
"U. c #FEEA52",
"Y. c #FFED5A",
"T. c #FFF059",
"R. c #E1E351",
"E. c #FFD668",
"W. c #FFC87B",
"Q. c #E7D569",
"!. c #FEEC6B",
"~. c #FFE863",
"^. c #FEF365",
"/. c #FFF369",
"(. c #FEEE76",
"). c #FEF576",
"_. c #F5F27F",
"`. c #DAC761",
"'. c #8AB887",
"]. c #98BF96",
"[. c #BBA082",
"{. c #BC948A",
"}. c #C79E83",
"|. c #DD8F82",
" X c #FF8A84",
".X c #E19A94",
"XX c #C1B585",
"oX c #CFAA90",
"OX c #FEB899",
"+X c #F4AD89",
"@X c #D7B9A2",
"#X c #FCABA7",
"$X c #E7BDAD",
"%X c #FDBFB9",
"&X c #9EC49B",
"*X c #B7D3B7",
"=X c #AACCA8",
"-X c #E9C398",
";X c #F8C79A",
":X c #FED38A",
">X c #FEEB86",
",X c #FEF48E",
"<X c #EFE792",
"1X c #FEC9A7",
"2X c #FFDAA9",
"3X c #FEC5B4",
"4X c #FDC8B4",
"5X c #FEC6BC",
"6X c #F4C3B4",
"7X c #F2CCAB",
"8X c #FFE7A5",
"9X c #FFEBBB",
"0X c #FEF5AF",
"qX c #C7DDC7",
"wX c #F9CAC4",
"eX c #FFD9C8",
"rX c #E0DAC2",
"tX c #DBEADA",
"yX c #CDE1CC",
"uX c #FFE9CF",
"iX c #FFF8D5",
"pX c #FFF2D3",
"aX c #E5EFE4",
"sX c #EBF3EA",
"dX c #FBF2E7",
"fX c #EFF7F1",
"gX c #F5F9F4",
"hX c #FAFAF7",
"jX c #FEFEFE",
"kX c #FBFCFA",
"lX c #F5F7F4",
"zX c #FBE6E1",
/* pixels */
"k k k k k k k k k k k k k k k k k k k k k k k k k k k k k k k k k k k k k k k k k k k k k k k k k k l k k j g j k k l j k k k j ",
"k k k k k k k k k k k k k k k k k k k k k k k k k k k k k k k k k k k k k k k k k k k k k k k k k k j l k h l l g k k k k z g k ",
"k k k k k k k k k k k k k k k k k k k k k k k k k k k k k k k k k k k k k k k k k k k k k k k k k k h j j l k k k g l k k k k j ",
"k k k k k k k k k k k k k k k k k k k k k k k k k k k k k k k k k k k k k k k k k k k k k k k k k N *XtXfXhXhXkXgXsXtXqXc l j k ",
"k k k k k k k k k k k k k k k k k k k k k k k k k k k k k k k k k k k k k k k k k k k k k k k k k *XlXjXjXkXgXgXhXjXkXhXN j l k ",
"k k k k k k k k k k k k k k k k k k k k k k k k k k k k k k k k k k k k k k k k k k k k k k k k j sXjXqXk l j k k l yXjXqXk k k ",
"k k k k k k k k k k k k k k k k k k k k k k k k k k k k k k k k k k k k k k k k k k k k k k k k l gXhXc k k k j k k '.kXqXk k j ",
"k k k k k k k k k k k k k k k k k k k k k k k k k k k k k k k k k k k k k k k k k k k k k k k k k lXkXc k l k k k g k b b k k k ",
"k k k k k k k k k k k k k k k k k k k k k k k k k k k k k k k k k k k k k k k k k k k k k k k k k qXjXhX'.l j k k k k k l k k k ",
"k k k k k k k k k k k k k k k k k k k k k k k k k k k k k k k k k k k l k k k k k k k k k k k k j b aXkXjXkXgXaXqX*X&Xb k k l j ",
"k k k k k k k k k k k k k k k k k k k k k k k k k k k k k k k l k l k k k k k k k k k k k k k k l k c B ].yXsXjXjXkXhXtXqXl g k ",
"k k k k k k k k k k k k k k k k k k k k k k k k k k k k k k k k k k k k j k k k k k k k k k k k k k l k k l k l '.qXlXjXkXk l g ",
"k k k k k k k k k k k k k k k k k k k k k k k k l k k k k k k k k k k g k k k k k k k k k k k k g k k j k l j k l j M lXjXk k k ",
"k k k k k k k k k k k k k k k k k k k k k k k k k k k k l l k k k l k k k l l j k k k k k k k k k =XfXl k k j l k k k aXjXk g k ",
"k k k k k k k k k k k k k k k k k k k k k k k k k k k j k k j k j l k k k k k j k k k k k k k k k *XjXN k l l k l k c jXkXk k k ",
"k k k k k k k k k k k k k k k k k k k k k k k k k x v a f f d p u d p l k k l k k k k k k k k k k M jXgXgXfXsXsXlXgXfXjX].k k k ",
"k k k k k k k k k k k k k k k k k l k k k k k x d D K +.#.%.$.o.o...+.F l k k k l k k k k k k k k k =XhXjXjXjXjXjXjXkX*Xl j h j ",
"k k k k k k k k k k k k k k k k k k k l k j u D Y I R E W P -.-.-.-.=.&.| k k k k k k h k k k k k k k k m B '.g.B M c l j k k k ",
"k k k k k k k k k k k k k k k k k g k k k p K I : % 1 1 % - J P -.-.-.=.=. .k k k k k k k k k k j l k k k k k k k k k j k k k h ",
"k k k k k k k k k k k k k k k k k k l k k L R * 1 1 1 1 % 1 * : ~ ,.-.u.t.-.o.x k k k k k k j k j l k k j j j l k l k k k k j k ",
"k k k k k k k k k k k k k k k k k k k j K ; 2 1 > 1 1 1 1 > 1 % & 1 P u.I.=.*.o.k z k k k g k l l k k k l l k k k k k k l l k k ",
"k k k k k k k k k k k k k k k k k k l s R % 1 > 1 1 1 1 1 1 1 & - = 1 * P.>X=.=.D h j h g k k k l k k k k k k k k k k j k k k k ",
"k k k k k k k k k k k k k k k k k k l ) * 1 > 1 1 1 1 1 1 1 > # $ * ; - 4.0.-.=...f k k k k l k j k k k k k k g k g k l k k k k ",
"k k k k k k k k k k k k k k k k l k s J % 1 1 % 1 , O + t |.< # $ @ : 4 R ; -.-.=.X.S k k k k l g l k k k k k k k k k k l k k k ",
"k k k k k k k k k k k k k k k k j k F ) 6 1 % 1 # .     , wX< 1 1 : W 2 : e.Y.i.-.$.o.k k k l j k k k k k k k k k k k k k k k k ",
"k k k k k k k k k k k l k k k j k k F.3X.Xq 1 1 oX. X . {. X3 3 3 3 : Q J W.(.u.-.:...f k k k k k k k k k k k k k k k k k k k k ",
"k k k k k k k k k k k k k k g k l g.5X-X@X#X0 1  X#X.X%X#X9 9 3 3 3 2 Q ' 1X6.9.>.-.$.V k k k k k k k k k k k k k k k k k k k k ",
"k k k k k k k k k k k k k k l k N 5X;X6X5X3X X3 4 9 3 4 3 5 3 3 w 7 4 ] l.V.l.9X,X*.&.X.k k l j k k k k k k k k k k k k k k k k ",
"k k k k k k k k k k k k k k j s.4X3X6X5X5X5XH.7 4 1 1 3 4 0 5 q q 3 q A.m.9XG.0.>.=.-.-.k l j l k k k k k k k k k k k k k k k k ",
"k k k k k k k k k k l g k k k -X;X5XwX5X5X6Xa.y 2 4 5 q q 7 3 5 q : ~ m.l.;X2X6.!.-.=.-.D k k k k k k k k k k k k k k k k k k k ",
"k k k k k k k k k k k l k k l ;X3X5X5X4X5XoXM.r e 5 6 1 9 9 8 k.l.k.n.c.3XA.Z.U ,X!.:.-.$.x g k k k k k k k k k k k k k k k k k ",
"k k k k k k k k k k l j j l c ;X4X5X4Xa.A Z D.e 4 0 4 q e k.v.v.v.v.C.S.OX1XzXz.y.pX&.-.-.F k k k k k k k k k k k k k k k k k k ",
"k k k k k k k k k k k k k k k -X5X5XXXo N.+X+Xb.9 w b.e l.k.b.v.n.A.eXn.+XS.eXc.9.i.=.>.-.&.u k l k k k k k k k k k k k k k k k ",
"k k k k k k k k l k k l k j l 6X4X1Xj., $X4X%XA.9 w e v.v.k.l.v.b.OXn.b.H.dXhXe.t.!.-.-.-.=.S k j j k g j k l h k k k k k k k k ",
"k k k k k k k k k k k k k k k h.5X}., [.$X5X5XS.e e b.v.v.x.H.S.{ OXJ.:Xn.dXP.~.iX!.-.=.-.-.$.f k k k k k k k k k k k k k k k k ",
"k k k k k k k k k k k k k k j k $X}.+ k k `.OX! e e e ! _ l.1X8Xe.uX+XH.zXm.z._ U.8.-.-.-.-.-.C k k l k k k g k k k k k k k k k ",
"k k k k k k k k k k k k l k l j n @Xs.l g S ' _ z.v.x.V.dX' x.9.C.2XpXuXC.] b.,.-.-.-.-.-.-.-.%.k k k k k k k k k k k k k k k k ",
"k k k k k k k k k k k l k k g l g j j j l a.l.6._ ] _ ] { E.' kX(.8.I.4.-.P.9X0X0XU.-.-.^ / -.%.S k k k k k k k k k k k k k k k ",
"k k k k k k k k k k k l j k l j k j k g p.e } _ _ z.e V.:XiX7.-.>.-.7.-.-.7.9.I.Q.h.`.-.;.:.=.O.H x k g k k k l k k k k k k k k ",
"k k k k k k k k k k k k k k l j k j k g a.K.M.! z.hXE.V.~.-.-.-.-.-.-.7.-.-.7.-.N.rX<Xh.i.>.7./ ^ V k k k l j l k k k k k k k k ",
"k k k k k k k k k k k k k k k k k k k l p.M.[ v.m.Z.8X4.-.-.-.-.-.-.-.-.-.-.-.-.-.7.5.r.XXr./ 1.-.#.i k k j k k k k k k k k k k ",
"k k k k k k k k k k k k k k k k j k k k v T c.x.G.>X,.-.-.-.-.-.-.-.-.-.-.-.-.-.-.-.-.-.2.*.O.@.>.*.| k j k k k k k k k k k k k ",
"k k k k k k k k k k k k k k k k k k k j k M.x.l.v.-.-.-.-.-.-.-.-.-.-.-.-.-.-.-.-.-.-.-.-.-.-.;.=.-.&.f k k k k k k k k k k k k ",
"k k k k k k k k k k k k k k k k k k k k k ! ! 2X' -.-.-.-.7.-.-.-.-.-.-.-.-.-.-.-.-.-.-.-.-.7.( / -.=.| g k j k k k k k k k k k ",
"k k k k k k k k k k k k k k k k k k k k k } c.W.>.-.-.-.-.-.-.-.-.-.-.-.-.-.-.-.-.-.-.-.-.-.-.-.3.( -.*.x k l k k k k k k k k k ",
"k k k k k k k k k k k k k k k k k k l k l ` ' -.-.-.-.-.-.-.-.-.-.-.-.-.-.-.-.-.-.-.-.7.-.-.-.-.*.1.-.-.S k j l k k k k k k k k ",
"k k k k k k k k k k k k k k k k k k k k k } ! -.-.-.-.7.-.-.-.-.:.*.7.-.-.-.-.-.-.-.-.-.-.-.-.-.-.-.^ L | k l k k k k k k k k k ",
"k k k k k k k k k k k k k k k k k k j k k } z.-.-.-.-.-.-.-.-.-.;.;.3.-.-.-.-.-.-.-.-.-.-.-.-.-.-.-.1.X.%.p k k k k k k k k k k ",
"k k k k k k k k k k k k k k k k k g k k k o.=.-.-.-.-.-.-.-.-.=.-.-.=.-.-.-.-.7.-.-.-.-.-.-.-.-.-.-.-.-.&.| j k k k k k k k k k ",
"k k k k k k k k k k k k k k k k k k k j l K [ -.-.-.-.-.-.-.:.@.7.-.7.-.-.-.-.:.;.-.:.-.-.-.-.7.-.-.-.-.*.a.x j k k k k k k k k ",
"k k k k k k k k k k k k k k k k l k k l k H ' -.7.-.-.-.-.-.-.-.1.,.-.-.=.=.-.,.=.1.2.=.-.-.-.-.-.-.-.-.-.#.f j k k k k k k k k ",
"k k k k k k k k k k k k k k k k j l k k l L.^.-.-.-.-.-.-.-.-.-.3.;.-.-.1.O.-.-.-.-.-.-.-.-.-.-.-.-.-.-.-.*.X.l k k k k k k k k ",
"k k k k k k k k k k k k k k k k k l j l x V >.-.-.-.-.-.-.-.-.-.-.1.-.-.1.1.-.-.-.-.-.-.-.-.%.-.7.-.-.-.-.=.3.n k k k k k k k k ",
"k k k k k k k k k k k k k k k k k j l k u r.U.-.-.-.-.-.-.-.-.-.-.:.-.-.*.=.-.>.>.-.-.-.7.-.@.-.-.-.-.-.-.-.&.G k k k k k k k k ",
"k k k k k k k k k k k k k k k k k k k k d I.^.i.-.-.-.-.-.-.-.=.3.-.-.-.:.:.-.<.O.;.@.:.*.-.-.-.-.-.-.-.-.-.-.<.k k k k k k k k ",
"k k k k k k k k k k k k k k k k k k k k a i.^.I.-.-.-.-.-.-.-.-.-.-.-.@.=.-.-.-.;.;.-.:.=.-.-.-.-.-.-.-.-.-.-.-.x k k k k k k k ",
"k k k k k k k k k k k k k k k k k k k k v $.u.>.-.-.-.-.-.-.-.-.-.>.-.=.-.-.-.-.3.:.=.-.;.-.-.-.-.,.-.-.-.-.-.&.S k k k j k k k ",
"k k k k k k k k k k k k k k k k k k l k x ..T.^.>.-.-.-.-.-.-.-.-.:.=.-.-.-.-.;.O.=.1.-.2.1.-.-.1.L -.-.-.-.-.=.| l k k l k g k ",
"k k k k k k k k k k k k k k k k k l k k l o.t.).t.-.-.-.-.-.-.-.-.;.=.-.-.-.-.%.O.:.=.%.-.=.-.-.-.-.-.-.7.-.7.>.$.l k g k k l k ",
"k k k k k k k k k k k k k k k k k k k k k L.I.).,X7.-.7.-.7.-.-.-.=.3.;.3.*.-.-.1.O.@./ -.,.-.O.-.-.-.-.>.-.-.-.&.d l l k j j k ",
"k k k k k k k k k k k k k k k k k k k j l f.0.8.).9.7.-.-.-.-.-.-.-.-.-.:.:.-.-.-.1.=./ @.1.*.,.-.-.-.>.-.-.-.-.=.H k k k k k k ",
"k k k k k k k k k k k k k k k k k k k k k d._.8.t.T.-.-.-.-.-.-.-.-.-.=.2.-.-.-.-.-.-.<.<.%.-.-.7.-.-.O.-.-.-.7.-.o.k j k l k l ",
"k k k k k k k k k k k k k k k k l k z k k f R.T.w.<X2.>.-.-.-.-.-.-.-.-.-.-.-.-.-.-.-.-.-.%.:.-.-.-.-.-.-.-.-.-.-.X.u k k k k l ",
"k k k k k k k k k k k k k k k k j k l k k p q.).a.q.B./.t.-.-.-.-.-.-.-.-.-.-.-.-.-.-.-.-.-.@.-.-.-.-.-.-.-.-.-.-.%.f k l k k j "
};
