/* XPM */
static char *_11db4d4fe3747a5f8ec55b37c44ec7amxO6YZzFz9vtvuqM[] = {
/* columns rows colors chars-per-pixel */
"64 64 232 2 ",
"   c #4B4131",
".  c #524936",
"X  c #4B402E",
"o  c #615A47",
"O  c #706F5D",
"+  c #FF3F3D",
"@  c #936738",
"#  c #A17433",
"$  c #D74C3D",
"%  c #CD4E3B",
"&  c #ED4C3E",
"*  c #FF443E",
"=  c #FE4D3B",
"-  c #FD5239",
";  c #FF5938",
":  c #FF7D29",
">  c #FE6634",
",  c #FE6A39",
"<  c #F57C3D",
"1  c #F4773D",
"2  c #FF3F40",
"3  c #98734B",
"4  c #8F6E5D",
"5  c #91734F",
"6  c #BF7D4B",
"7  c #FE4242",
"8  c #FF4A44",
"9  c #FF4B49",
"0  c #F04440",
"q  c #FE5246",
"w  c #FF544B",
"e  c #FE5B4C",
"r  c #FE5E42",
"t  c #FF5E51",
"y  c #EF4746",
"u  c #F46B47",
"i  c #F36B49",
"p  c #FC6548",
"a  c #EF7146",
"s  c #F47243",
"d  c #F2714D",
"f  c #F97847",
"g  c #FF6551",
"h  c #FF6A53",
"j  c #F67453",
"k  c #FE7253",
"l  c #FE7B55",
"z  c #F57C5B",
"x  c #FF7E59",
"c  c #FF7159",
"v  c #E6605D",
"b  c #D87452",
"n  c #A08430",
"m  c #FF9A1E",
"M  c #D5BD1D",
"N  c #FDA81B",
"B  c #FDB513",
"V  c #FCBC13",
"C  c #FBB31B",
"Z  c #FDBC1B",
"A  c #F0BC15",
"S  c #FE8D21",
"D  c #FF8727",
"F  c #F6932C",
"G  c #F89A29",
"H  c #FC9626",
"J  c #F58636",
"K  c #F58439",
"L  c #F88937",
"P  c #FE933E",
"I  c #FF9D3B",
"U  c #FA9732",
"Y  c #E09832",
"T  c #C1AF2F",
"R  c #D5BD23",
"E  c #DABE21",
"W  c #D0B52A",
"Q  c #C6B12F",
"!  c #FAAB23",
"~  c #FFAC2E",
"^  c #F9A424",
"/  c #FFB525",
"(  c #FEBA28",
")  c #FEA533",
"_  c #FEA635",
"`  c #FFBC35",
"'  c #E3B125",
"]  c #C7942B",
"[  c #DDC21C",
"{  c #EDCF0E",
"}  c #EEC60F",
"|  c #FDC60D",
" . c #FDCD0B",
".. c #EDD10C",
"X. c #F5D606",
"o. c #FED505",
"O. c #F6D805",
"+. c #FEDE01",
"@. c #F4D40A",
"#. c #FED30A",
"$. c #F6D808",
"%. c #FFDE09",
"&. c #E3C616",
"*. c #E6CC13",
"=. c #EACD11",
"-. c #E2C619",
";. c #E5C819",
":. c #FDC411",
">. c #FEC919",
",. c #FFDF10",
"<. c #F6D715",
"1. c #FEE001",
"2. c #FFE00D",
"3. c #FFE113",
"4. c #FFE21D",
"5. c #DAC023",
"6. c #FDC92B",
"7. c #EED326",
"8. c #FEDF22",
"9. c #FFD335",
"0. c #E3C831",
"q. c #FFE525",
"w. c #FFE12B",
"e. c #FEE333",
"r. c #FFE53B",
"t. c #FFE836",
"y. c #AC8F51",
"u. c #B2A770",
"i. c #C19450",
"p. c #FF854E",
"a. c #FF8C4C",
"s. c #FF9443",
"d. c #FF9942",
"f. c #FD924A",
"g. c #FE8354",
"h. c #FE8A51",
"j. c #FF815A",
"k. c #FE8B5C",
"l. c #F1885B",
"z. c #FD9854",
"x. c #EB9B54",
"c. c #C4A855",
"v. c #C8B743",
"b. c #FCA444",
"n. c #FDB54C",
"m. c #FFBA47",
"M. c #FFA654",
"N. c #FCB855",
"B. c #C08462",
"V. c #F98866",
"C. c #FF956D",
"Z. c #FB9574",
"A. c #FF9D79",
"S. c #EB9365",
"D. c #FFB468",
"F. c #FFA47B",
"G. c #FCB678",
"H. c #FFA169",
"J. c #FED747",
"K. c #FCDD51",
"L. c #FFE949",
"P. c #FEE744",
"I. c #FFEB51",
"U. c #FFED5A",
"Y. c #FFF057",
"T. c #DCCB6F",
"R. c #FFD668",
"E. c #FFC87C",
"W. c #E6D569",
"Q. c #FFEC6B",
"!. c #FFE863",
"~. c #FFF264",
"^. c #FFF369",
"/. c #FFEF7B",
"(. c #FCEE74",
"). c #FFF578",
"_. c #FFF574",
"`. c #BC948A",
"'. c #C79E83",
"]. c #D69683",
"[. c #FF8884",
"{. c #FD9789",
"}. c #E19A94",
"|. c #C1AD8F",
" X c #F9A584",
".X c #FFBC8B",
"XX c #FEBC9C",
"oX c #FEB498",
"OX c #F0B08C",
"+X c #FCACA5",
"@X c #FFBAAA",
"#X c #FCBEB6",
"$X c #EDB9AC",
"%X c #FFDE8D",
"&X c #FEC59B",
"*X c #FEC899",
"=X c #FDC886",
"-X c #FCEA8A",
";X c #FFFB8F",
":X c #FFF190",
">X c #EDE992",
",X c #DFDABD",
"<X c #FFC6AD",
"1X c #FFCAA6",
"2X c #FFDAAA",
"3X c #FEC5B5",
"4X c #FEC6BC",
"5X c #FEC8B6",
"6X c #FFDFB0",
"7X c #FFE7A5",
"8X c #FFEBBB",
"9X c #FEF5AF",
"0X c #FFC7C0",
"qX c #F3CEC8",
"wX c #FED8CA",
"eX c #FCDAD1",
"rX c #FFE9CF",
"tX c #FFE9DD",
"yX c #FFF8D6",
"uX c #FFF6C3",
"iX c #FCEAE7",
"pX c #FDF1EA",
"aX c #FFF0E0",
"sX c #FEF5F5",
"dX c #FEFAF7",
"fX c #FFFAF6",
"gX c #FFF6F8",
"hX c #FFFAF9",
"jX c #FEFDFA",
"kX c #FFFFFF",
"lX c #FFFDFD",
"zX c #FFFCFB",
/* pixels */
"u u u u u u u u u u u u u u u u u u u u u u u u u u u u u u u u u u u u u u u u u u u u u u u u u i u u u u u u i u u i u i u u ",
"u u u u u u u u u u u u u u u u u u u u u u u u u u u u u u u u u u u u u u u u u u u u u u u u u u u i u u i u i u u i u u u u ",
"u u u u u u u u u u u u u u u u u u u u u u u u u u u u u u u u u u u u u u u u u u u u u u u u i i V.u u u u i u u u i u i u i ",
"u u u u u u u u u u u u u u u u u u u u u u u u u u u u u u u u u u u u u u u u u u u u u u u u u zXpXu u u u u u u eXtXi u i u ",
"u u u u u u u u u u u u u u u u u u u u u u u u u u u u u u u u u u u u u u u u u u u u u u u u u jXhXi u u u u u u gXlXd u u i ",
"u u u u u u u u u u u u u u u u u u u u u u u u u u u u u u u u u u u u u u u u u u u u u u u u i jXlXi u i u u i u fXlXd i u u ",
"u u u u u u u u u u u u u u u u u u u u u u u u u u u u u u u u u u u u u u u u u u u u u u u u u jXjXu u u u i i u fXlXd u u u ",
"u u u u u u u u u u u u u u u u u u u u u u u u u u u u u u u u u u u u u u u u u u u u u u u u u lXjXu u i i u u u hXlXu i i u ",
"u u u u u u u u u u u u u u u u u u u u u u u u i i i u u u u i u u u u u u i u u u u u u u u u i hXlXi u u u i u u hXlXu i u u ",
"u u u u u u u u u u u u u u u u u u u u u u u u u u u u u u u u i i u u u u u i u u u u u u u u u fXjXi i u i i i u hXlXu u i i ",
"u u u u u u u u u u u u u u u u u u u u u u u u i u u u u u u u u u u u u u u u u u u u u u u u u fXlXi u i eXV.i u jXlXu i u u ",
"u u u u u u u u u u u u u u u u u u u u u u u u u u i i i u u u u u i i u i i u u u u u u u u u i gXlXi z zXjXhXj u hXlXu i u u ",
"u u u u u u u u u u u u u u u u u u u u u u u u i i u u u u u u u u u u i u u u u u u u u u u u u sXlXd sXjXlXlXsXu jXlXu u u u ",
"u u u u u u u u u u u u u u u u u u u u u u u u i u u u u i i u i i u u u i u u u u u u u u u u u sXlXhXlXhXV.lXlXiXlXlXu u u i ",
"u u u u u u u u u u u u u u u u u u u u u u u u u u u u u u u i u u u i u i i u u u u u u u u u u sXlXlXlXd u d jXlXlXlXu i u u ",
"u u u u u u u u u u u u u u u u u u u u u u u u u u s < J J K < 1 J < i u u i u u u u u u u u u u hXlXlXd u i u j lXlXjXu i u u ",
"u u u u u u u u u u u u u u u u u u i u i u u u < G C V |  . .V C | :.^ u u u i u i u i i u u u u pXsXi u u i i u V.hXpXu u u u ",
"u u u u u u u u u u u u u u u u u u u u i u s G B N S D m V o.+.+.+.+.o.C u i u u i i u u u u u i j i u i i u u u i u u u i i u ",
"u u u u u u u u u u u u u u u u u i u u u < C N > * 7 7 * ; S B +.+.+.o.o.N a u u u i u i u u u u u u i u u u u i i u u i u i u ",
"u u u u u u u u u u u u u u u u i i u u u B S - 7 7 7 7 7 7 - > P o.+.r.w.+.V s u u u u u u i u u u u u i u u u i u i u i u u i ",
"u u u u u u u u u u u u u u u u u u i u N : * 7 7 7 7 7 7 7 7 * = 7 B r.P.o.o.C u i u u u u u u u i i u u u u u u u u u u u u u ",
"u u u u u u u u u u u u u u u u u u u K S * 7 7 7 * * 7 + 7 7 = ; r * = J.-X+.+.G u u u i u u u u u u u i i u u i u u u u u i u ",
"u u u u u u u u u u u u u u u u u i u H - * 7 7 7 7 7 7 7 7 * % & ; : ; >.4.+.+.| J u i i u i u u i i u u u i u u u i u u u u u ",
"u u u u u u u u u u u u u u u u u i K m * * 7 7 7 4 o O v ].0 $ & @ , q D : +.+.o. .F u u u u u u u u u u u u u u u i i u u i i ",
"u u u u u u u u u i u i u u i u i u G I r 7 * 7 $ .     4 qXy 8 8 p H 8 > 9.U.e.+. .V u u u u u u u u u u u u u u u u u u u u u ",
"u u u u u u u u u i u i u u i u u u G.3X{.c 7 2 |.. X . `.[.9 8 9 9 > L m E.(.r.+.o.:.J u u i u u u u u u u u u u u u u u u u u ",
"u u u u u u u u u u u u u u u u u Z.4X@XoX+Xh 7 [.+X}.#X+Xg g 9 9 9 8 P ( 1X .3.,.+. .! u i i u u u u u u u u u u u u u u u u u ",
"u u u u u u u u i u u u i u u i V.4X&X#X4X3X{.8 q g 9 q 9 w 9 9 l t q ) a.m.a.8X:X#.o.:.i u u u u u u u u u u u u u u u u u u u ",
"u u u u u u u u i u u u i u u V.5X5X3X4X4X4XF.w w 8 8 9 w h w k k 9 f V.z.8XD.4.,.o.+.+.u u u u u u u u u u u u u u u u u u u u ",
"u u u u u u u u u u u u i u u .X*X4X4X4X4X3Xy.b 8 q e k k e 9 w k , P z.a.&X6X#.Q.+.+.+.G u i i u u u u u u u u u u u u u u u u ",
"u u u u u u u u u u u u u u i *X5X4X4X5X4XOXx.z x w e 8 g g p p.a.p.h.f.5XV.M.Z :XQ.o.+. .s u u u u u u u u u u u u u u u u u u ",
"u u u u u u u u u u i u u u d &X5X0X<Xi.] n S.x q h w k x p.g.g.g.g.M.C.oX1XiXs.e.uXo.+.+.^ i u u u u u u u u u u u u u u u u u ",
"u u u u u u u u u u u u u i u XX4X4X X# c.OXoXj.g l j.l a.p.l l h.V.wXk. XC.wXf.3.r.o.+.+.o.s u u i u i u i u u u u u u u u u u ",
"u u u u u u u u u i u u u u u #X<X1XB.5 $X5X3XV.g l x g.g.h.a.g.j.oXk.j.A.pXfX6.q.Q.+.+.+.o.F i u u u u i i u u u u u u u u u u ",
"u u u u u u u u u i u u i u u Z.4X'.5 ].@X4X4XZ.x x j.g.g.s.F.H.` XXG.=Xk.aXK.!.yXQ.+.+.+.+. .L i i i u u i u u u u u u u u u u ",
"u u u u u u u u u u u i u u u u @X'.3 u u N.XXb.x x l I ~ a.1X7X9.rX.XF.tXz.s.~ I.2.+.+.+.+.+.N u i u i i u i u u u u u u u u u ",
"u u u u u u u u u i u i u u u i z +Xl.i u F / ~ s.g.d.n.pX( d.3.b.2XyXrXM.) g.o.+.+.+.+.+.+.+.#.u u i u u u i i u u u u u u u u ",
"u u u u u u u u u i u u i u u u u i u i u f h.#.~ _ ~ ) ` R.( jX/.2.P.>.+.J.8X9X9XI.+.+.Q R +. .F i u u u u u u u u u u u u u u ",
"u u u u u u u u u u u u u u u i u i u u j x ) ~ ~ s.x n.%XyX1.+.+.+.+.+.+.1.3.L.W.u.T.+.@.@.+.E ' s i u i u u i u u u u u u u u ",
"u u u u u u u u i u u u i i u u u u i u j l a.I s.fXR.m.!.+.+.+.+.+.+.+.+.+.1.+.c.,X>Xu.e.%.+.E ' ! i u u i u u u u u u u u u u ",
"u u u u u u u u u u u u u u u u u i u u j l ) h.z.N.7X>.+.+.+.+.+.+.+.+.+.+.+.+.+.+.<.0.|.7.R =.+. .s u u i u u u u u u u u u u ",
"u u u u u u u u u u u u u u u u u u u i u P s.s.D.-Xo.+.+.+.+.+.+.+.+.+.+.+.+.+.+.+.+.+.-.X.[ { +.o.C u u u u i u u u u u u u u ",
"u u u u u u u u u u u u u u u u u u u u u P I a.g.+.+.+.+.+.+.+.+.+.+.+.+.+.+.+.+.+.+.+.+.+.+.@.X.+. .K u u u i u u u u u u u u ",
"u u u u u u u u u u u u u u u u i u i u u I I 2X( +.+.+.+.1.+.+.+.+.+.+.+.+.+.+.+.+.+.+.+.+.1.T R +.o.C u u u u u u u u u u u u ",
"u u u u u u u u u u u u u u u u i u u i u / f.E.%.+.+.+.+.+.+.+.+.+.+.+.+.+.+.+.+.+.+.+.+.+.+.1.-.T +.o.s u u u u u u u u u u u ",
"u u u u u u u u u u u u u u u u u u u u i ~ / +.+.+.+.+.+.+.+.+.+.+.+.+.+.+.+.+.+.+.+.+.+.+.+.+.$.=.+.+.F i u u u u u u u u u u ",
"u u u u u u u u u u u u u u u u u i u u u ! I +.+.+.+.+.+.+.+.+.$.X.1.+.+.+.+.+.+.+.+.+.+.+.+.+.+.+.W E C u i u u u u u u u u u ",
"u u u u u u u u u u u u u u u u i u i u u I s.+.+.+.+.+.+.+.+.+.@.@.&.+.+.+.+.+.+.+.+.+.+.+.+.+.+.+.=.} #.< u u u u u u u u u u ",
"u u u u u u u u u u u u u u u u u u u u i Z +.+.+.+.+.+.+.+.+.O.+.+.O.+.+.+.+.1.+.+.+.+.+.+.+.+.+.+.+.+.#.C u u i u u u u u u u ",
"u u u u u u u u u u u u u u u u u u u u u C _ +.+.+.+.+.+.+.$.{ +.+.+.+.+.+.+.$.@.+.$.+.+.+.+.1.+.1.+.+.o.y.a u u u u u u u u u ",
"u u u u u u u u u u u u u u u u i i u u u ! / +.1.+.+.+.+.+.+.+.=.o.+.+.O.O.+.o.O.=.-.%.+.+.+.+.+.+.+.+.+.=.J u u u u u u u u u ",
"u u u u u u u u u u u u u u u u u u u u i n.~.+.+.+.+.+.+.+.+.+.&.@.+.+.=.[ +.+.+.+.+.+.+.+.+.+.+.+.+.+.+.o.:.u u u u u u u u u ",
"u u u u u u u u u u u u u u u u u u u i u ! %.+.+.+.+.+.+.+.+.+.+.=.+.+.=.=.+.+.+.+.+.+.+.+...+.+.+.+.+.+.+.&.6 u u i u u u u u ",
"u u u u u u u u u u u u u u u u i u i u < 9.I.+.+.+.+.+.+.+.+.+.+.$.+.+.$.O.+.+.+.+.+.+.1.+.{ +.+.+.+.+.+.+.@.Y u u i i u u u u ",
"u u u u u u u u u u u u u u u u u u u i J r.~.t.+.+.+.+.+.+.+.O.&.+.+.+.$.$.+.*.[ @.{ $.X.+.+.+.+.+.+.+.+.+.+. .u u u i u u u u ",
"u u u u u u u u u u u u u u u u u i u u K e.^.L.+.+.+.+.+.+.+.+.+.+.+.{ O.+.+.+.@.@.+.$.O.+.+.+.+.+.+.+.+.+.+.+.s u u u u u u i ",
"u u u u u u u u u u u u u u u u i u u i s  .t.2.+.+.+.1.+.+.+.+.+.+.+.O.+.+.+.+.&.$.O.+.@.+.+.+.+.+.+.+.+.+.+. .U u i u u u i u ",
"u u u u u u u u u u u u u u u u u i i u s | Y.~.%.+.+.1.+.+.+.+.+.$.O.+.+.+.+.@.[ O.=.+.-.=.+.+.=.M +.+.+.+.+.o.C u u u i i u u ",
"u u u u u u u u u u u u u u u u i u u i u C 4.).q.+.+.+.+.+.+.+.+.@.O.+.+.+.+...[ $.O...+.O.+.+.+.+.+.+.1.+.+.+. .u i u i u u u ",
"u u u u u u u u u u u u u u u u u u i i u N.L._.;X1.+.1.+.1.+.+.+.O.;.@.&.X.+.+.=.[ { R +.o.+.[ +.1.+.+.+.+.+.+.o.K i u u u u u ",
"u u u u u u u u u u u u u u u u i u u u u b.8.2.).3.+.+.+.1.+.+.+.+.+.+.$.$.+.+.+.=.O.E { =.X.o.+.+.+.+.+.+.+.+.+.^ u u u u u u ",
"u u u u u u u u u u u u u u u u i u u u u z./.2.q.U.+.+.+.+.+.+.+.+.+.O.-.+.+.+.+.+.+.*.*...+.+.1.+.+.[ +.+.+.+.+.V u u i u u i ",
"u u u u u u u u u u u u u u u u i i u u u L K.U.7.>X-.+.+.+.+.+.+.+.+.+.+.+.+.+.+.+.+.+.+...$.+.+.+.+.+.+.+.+.+.+. .1 u i u i i ",
"u u u u u u u u u u u u u u u u u u u u i < 6.).y.5.v.^.q.+.+.+.+.+.+.+.+.+.+.+.+.+.+.+.+.+.{ +.+.+.+.+.+.+.+.+.+.#.J u i u u u "
};
