/* XPM */
static char *_180e9902a71487be8b2c98ea1a5d6d4SaGxldAyxHXONtvK[] = {
/* columns rows colors chars-per-pixel */
"64 64 223 2 ",
"   c #4B4131",
".  c #524936",
"X  c #4B402E",
"o  c #615A47",
"O  c #797252",
"+  c #956735",
"@  c #D44D3C",
"#  c #FF443F",
"$  c #FF4B3C",
"%  c #FE523A",
"&  c #FF5B3A",
"*  c #EE4F3C",
"=  c #FE7D29",
"-  c #FD6837",
";  c #FF3F40",
":  c #8E7252",
">  c #96777C",
",  c #A97B76",
"<  c #EE4742",
"1  c #FF4242",
"2  c #FF4A43",
"3  c #FF4B49",
"4  c #FE5245",
"5  c #FF544B",
"6  c #FC5C4B",
"7  c #F35F57",
"8  c #FC6548",
"9  c #FF6551",
"0  c #FF6A54",
"q  c #FE7253",
"w  c #FE7B56",
"e  c #FE7E59",
"r  c #FF715D",
"t  c #F57B4F",
"y  c #D27D69",
"u  c #D97251",
"i  c #75897A",
"p  c #798A77",
"a  c #7D9072",
"s  c #9F8531",
"d  c #A6953B",
"f  c #BEB638",
"g  c #BDAE39",
"h  c #FC9A1E",
"j  c #D7BE1E",
"k  c #FEA419",
"l  c #FFB915",
"z  c #F3B815",
"x  c #D89E30",
"c  c #FE8924",
"v  c #FD9126",
"b  c #FF893C",
"n  c #FE9D3C",
"m  c #FE933D",
"M  c #CBB82C",
"N  c #D5BD22",
"B  c #D9BC22",
"V  c #C3AD34",
"C  c #C2B935",
"Z  c #C3B538",
"A  c #FEAD2E",
"S  c #E4BA26",
"D  c #FEB526",
"F  c #FEBA28",
"G  c #E9A73A",
"H  c #FFA533",
"J  c #F9A735",
"K  c #FFBC35",
"L  c #DDC31C",
"P  c #DCC91E",
"I  c #EDCE0D",
"U  c #EED30D",
"Y  c #F6D606",
"T  c #F5D905",
"R  c #FEDE01",
"E  c #F4D50B",
"W  c #F6D809",
"Q  c #FEDE0A",
"!  c #FED408",
"~  c #E2C716",
"^  c #E5CC14",
"/  c #EACD12",
"(  c #E2C619",
")  c #E2CC1B",
"_  c #E8C414",
"`  c #FFC918",
"'  c #ECD213",
"]  c #F4D613",
"[  c #FFCE0F",
"{  c #FEE001",
"}  c #FFE10D",
"|  c #FFE113",
" . c #FFE11E",
".. c #D6C425",
"X. c #D1C434",
"o. c #EED326",
"O. c #FFD336",
"+. c #EECF33",
"@. c #FEE424",
"#. c #FDE22C",
"$. c #FFE63B",
"%. c #FCE638",
"&. c #9E9C56",
"*. c #939B5F",
"=. c #9D934E",
"-. c #AF9056",
";. c #9BA258",
":. c #B4AD45",
">. c #B4B141",
",. c #ACA651",
"<. c #889567",
"1. c #8F8E6D",
"2. c #B5A66E",
"3. c #AFB470",
"4. c #D69A4F",
"5. c #FF854E",
"6. c #FF8C4B",
"7. c #FF9543",
"8. c #FF9B41",
"9. c #FB9447",
"0. c #FE8354",
"q. c #FF815A",
"w. c #FE8B5C",
"e. c #FA8952",
"r. c #FF9756",
"t. c #ED984C",
"y. c #C4B34C",
"u. c #FFB74A",
"i. c #FFA654",
"p. c #FEB052",
"a. c #C39C7F",
"s. c #FF8561",
"d. c #FE8D65",
"f. c #FF956C",
"g. c #F5986F",
"h. c #DBBE62",
"j. c #FFB468",
"k. c #FFA47B",
"l. c #FFAE74",
"z. c #FED748",
"x. c #E5DE5A",
"c. c #FDE746",
"v. c #FFEC55",
"b. c #FFF059",
"n. c #FFD668",
"m. c #FFC87C",
"M. c #E4D66D",
"N. c #FFEB67",
"B. c #FFF367",
"V. c #FEEE76",
"C. c #FEF578",
"Z. c #DACB6E",
"A. c #5D7A8E",
"S. c #537497",
"D. c #597694",
"F. c #5A7992",
"G. c #537499",
"H. c #597699",
"J. c #57789A",
"K. c #5B7A9B",
"L. c #657C88",
"P. c #607A91",
"I. c #5F809F",
"U. c #6A8382",
"Y. c #658285",
"T. c #71829C",
"R. c #6482A2",
"E. c #6A85A4",
"W. c #7A94AD",
"Q. c #708BA9",
"!. c #888E97",
"~. c #BC998B",
"^. c #95A580",
"/. c #8D96AB",
"(. c #A399A2",
"). c #95AABF",
"_. c #D29784",
"`. c #FF8A85",
"'. c #E29D95",
"]. c #CCAF8B",
"[. c #FFB898",
"{. c #F9AF8A",
"}. c #D9B3B3",
"|. c #C7A9A1",
" X c #FCABA7",
".X c #ECBCAA",
"XX c #EBBDBA",
"oX c #F9BFBB",
"OX c #F9C79D",
"+X c #F8CD8E",
"@X c #FDEC87",
"#X c #F7EF90",
"$X c #FEC9A7",
"%X c #FFDBAA",
"&X c #FDC6B4",
"*X c #FEC5BD",
"=X c #FCC7B8",
"-X c #F0DDB7",
";X c #FFE7A5",
":X c #FFEBBB",
">X c #FDF6AE",
",X c #9EAFC3",
"<X c #ABBACD",
"1X c #B8C5D6",
"2X c #C8D4DD",
"3X c #FFD9C8",
"4X c #F3CEC8",
"5X c #FFE9CF",
"6X c #FFF8D5",
"7X c #FEF2D3",
"8X c #D0DDE5",
"9X c #D9E0EA",
"0X c #E2E5EB",
"qX c #FEF0E5",
"wX c #E8EDF3",
"eX c #EFF2F6",
"rX c #F4F5F6",
"tX c #F3F5F8",
"yX c #FAFDFD",
"uX c #FEFEFE",
"iX c #FBFBFB",
"pX c #F8F9F8",
"aX c #FBE6E1",
/* pixels */
"S.S.S.S.S.S.S.S.S.S.S.S.S.S.S.S.S.S.S.S.S.S.S.S.S.S.S.S.S.S.S.S.S.S.S.S.S.S.S.S.S.S.S.S.S.S.S.S.G.S.S.S.S.S.S.S.G.S.G.S.S.S.G.S.",
"S.S.S.S.S.S.S.S.S.S.S.S.S.S.S.S.S.S.S.S.S.S.S.S.S.S.S.S.S.S.S.S.S.S.S.S.S.S.S.S.S.S.S.S.S.S.S.S.S.S.S.S.S.G.S.S.S.G.G.G.G.G.S.G.",
"S.S.S.S.S.S.S.S.S.S.S.S.S.S.S.S.S.S.S.S.S.S.S.S.S.S.S.S.S.S.S.S.S.S.S.S.S.S.S.S.S.S.S.S.S.S.S.S.S.G.G.G.G.S.G.G.S.S.K.G.S.S.G.S.",
"S.S.S.S.S.S.S.S.S.S.S.S.S.S.S.S.S.S.S.S.S.S.S.S.S.S.S.S.S.S.S.S.S.S.S.S.S.S.S.S.S.S.S.S.S.S.S.S.S.8XwXK.S.S.S.S.G.G.yXrXS.G.S.G.",
"S.S.S.S.S.S.S.S.S.S.S.S.S.S.S.S.S.S.S.S.S.S.S.S.S.S.S.S.S.S.S.S.S.S.S.S.S.S.S.S.S.S.S.S.S.S.S.S.R.uXuX1XS.S.S.S.H.J.uXyXS.S.S.S.",
"S.S.S.S.S.S.S.S.S.S.S.S.S.S.S.S.S.S.S.S.S.S.S.S.S.S.S.S.S.S.S.S.S.S.S.S.S.S.S.S.S.S.S.S.S.S.S.S.R.uXuXrXE.G.S.G.S.S.iXuXG.G.S.G.",
"S.S.S.S.S.S.S.S.S.S.S.S.S.S.S.S.S.S.S.S.S.S.S.S.S.S.S.S.S.S.S.S.S.S.S.S.S.S.S.S.S.S.S.S.S.S.S.S.E.iXuXuX9XS.G.S.G.G.tXuXG.S.S.S.",
"S.S.S.S.S.S.S.S.S.S.S.S.S.S.S.S.S.S.S.S.S.S.S.S.S.S.S.S.S.S.S.S.S.S.S.S.S.S.S.S.S.S.S.S.S.S.S.S.R.uXuXiXiX).G.G.S.G.tXuXG.S.S.G.",
"S.S.S.S.S.S.S.S.S.S.S.S.S.S.S.S.S.S.S.S.S.S.S.S.S.S.S.G.G.S.S.S.S.S.S.G.G.G.G.S.S.S.S.S.S.S.S.S.R.uXuXK.wXwXK.S.G.S.eXuXS.G.G.S.",
"S.S.S.S.S.S.S.S.S.S.S.S.S.S.S.S.S.S.S.S.S.S.S.S.G.G.G.S.S.S.S.G.S.G.S.S.S.S.S.S.S.S.S.S.S.S.S.S.R.yXuXS.<XiX1XS.S.S.tXuXG.S.S.S.",
"S.S.S.S.S.S.S.S.S.S.S.S.S.S.S.S.S.S.S.S.S.S.S.S.S.S.S.S.S.G.G.S.G.S.G.G.S.G.G.S.S.S.S.S.S.S.S.S.R.iXuXD.E.pXrXQ.S.G.tXuXS.S.G.S.",
"S.S.S.S.S.S.S.S.S.S.S.S.S.S.S.S.S.S.S.S.S.S.S.S.G.G.G.S.S.S.S.S.S.G.S.S.S.G.G.S.S.S.S.S.S.S.S.S.J.iXuXG.G.2XiXwXG.G.tXuXG.S.S.G.",
"S.S.S.S.S.S.S.S.S.S.S.S.S.S.S.S.S.S.S.S.S.S.S.S.S.G.G.G.S.S.S.S.G.G.G.G.S.S.S.S.S.S.S.S.S.S.S.S.K.uXyXG.S.K.rXiX,XS.pXuXG.S.G.S.",
"S.S.S.S.S.S.S.S.S.S.S.S.S.S.S.S.S.S.S.S.S.S.S.S.S.S.S.G.S.S.S.S.S.S.G.G.S.S.G.G.S.S.S.S.S.S.S.S.G.tXuXG.G.S./.iXiXW.iXuXG.S.G.S.",
"S.S.S.S.S.S.S.S.S.S.S.S.S.S.S.S.S.S.S.S.S.S.S.S.G.G.S.G.G.S.S.G.S.G.S.S.G.S.S.S.S.S.S.S.S.S.S.S.S.wXyXS.S.S.S.2XyXuXuXyXJ.S.S.G.",
"S.S.S.S.S.S.S.S.S.S.S.S.S.S.S.S.S.S.S.S.S.S.S.S.S.A.L.i a a i U.L.i U.S.G.S.G.S.S.S.S.S.S.S.S.S.G.0XiXG.S.S.S.I.eXrXuXiXJ.S.G.S.",
"S.S.S.S.S.S.S.S.S.S.S.S.S.S.S.S.S.G.S.S.S.G.S.F.i &.Z S ^ / ) ..C ....,.S.S.G.G.S.G.S.S.G.S.S.G.S.0XeXH.S.G.S.S.W.pXiXiXG.D.G.S.",
"S.S.S.S.S.S.S.S.S.S.S.S.S.S.S.S.G.S.G.G.G.S.L.&.S k v c h l ! R R R R U f S.S.S.G.S.S.S.G.S.S.G.S.G.H.S.S.G.S.S.S.S.G.J.S.S.G.S.",
"S.S.S.S.S.S.S.S.S.S.S.S.S.S.S.S.G.S.S.G.S.U.M k - # # # # & h l R R R T W >.S.G.S.S.G.G.S.S.G.G.S.G.G.S.S.S.S.S.S.G.S.S.S.G.S.S.",
"S.S.S.S.S.S.S.S.S.S.S.S.S.S.S.S.G.G.S.G.D.S c $ # 1 1 1 1 1 % - m ! R $.#.T M F.S.S.G.S.S.G.S.S.G.S.G.S.S.S.G.S.G.S.G.G.G.S.G.G.",
"S.S.S.S.S.S.S.S.S.S.S.S.S.S.S.S.G.S.S.S.V = $ 1 1 1 1 1 # ; 1 # $ 1 l $.c.T E C G.S.G.S.S.S.G.G.S.S.G.G.G.S.G.G.S.S.S.S.S.S.S.S.",
"S.S.S.S.S.S.S.S.S.S.S.S.S.S.S.S.G.S.G.1.v # 1 ; 1 1 1 1 1 1 # $ & & 1 % z.@XT T ;.G.S.G.G.G.S.G.S.S.S.S.G.G.S.S.S.G.G.S.S.S.S.S.",
"S.S.S.S.S.S.S.S.S.S.S.S.S.S.S.S.S.S.G.x % 1 # 1 1 1 1 1 ; 1 1 @ * % = & `  .R R P <.F.S.G.S.S.S.G.G.G.S.S.S.G.S.G.S.S.S.G.S.G.G.",
"S.S.S.S.S.S.S.S.S.S.S.S.S.S.S.S.S.G.p h 1 1 # 1 ; : o O 7 _.< @ < + - 4 c = { R T ) <.S.S.G.S.S.G.S.S.G.S.S.S.G.G.G.G.S.S.G.S.S.",
"S.S.S.S.S.S.S.S.S.S.G.S.S.S.G.G.S.G.&.4.6 1 1 ; @ .     : 4X< 1 1 - v 2 - O.v.%.T / ..D.S.S.G.S.S.S.S.S.S.S.S.S.S.S.S.S.S.S.S.S.",
"S.S.S.S.S.S.S.S.G.G.S.G.G.S.S.G.G.S.].oX'.r 1 1 |.. X . ~.`.3 2 3 3 - b h m.V.$.R W ..a S.S.S.G.S.S.S.S.S.S.S.S.S.S.S.S.S.S.S.S.",
"S.S.S.S.S.S.S.S.G.S.S.G.S.S.S.G.S.(.*X.X}. X0 1 `. X'.oX X9 9 3 3 3 2 b F $X[ | Q T ^ :.S.S.S.G.S.S.S.S.S.S.S.S.S.S.S.S.S.S.S.S.",
"S.S.S.S.S.S.S.S.G.S.S.G.G.S.G.S.!.*XOXoX*X&X`.3 4 9 3 4 3 5 3 3 w 9 4 H 6.u.6.:X#XU U P S.S.S.S.S.S.S.S.S.S.S.S.S.S.S.S.S.S.S.S.",
"S.S.S.S.S.S.S.S.S.S.G.S.S.S.G.!.=X&X=X*X=X*Xk.5 5 1 1 3 5 0 5 q q 3 t s.r.:Xj. .} W Q R G.G.S.S.S.S.S.S.S.S.S.S.S.S.S.S.S.S.S.S.",
"S.S.S.S.S.S.S.S.G.S.S.S.G.G.S.OXOX*X*X*X*X=X-.u 2 4 5 q q 6 3 5 q - m r.6.OX%X[ N.T T R ;.S.G.S.S.S.S.S.S.S.S.S.S.S.S.S.S.S.S.S.",
"S.S.S.S.S.S.S.S.S.G.S.S.G.S.H.OX&X*X*X&X=X].t.0.e 5 6 1 9 9 8 5.6.5.6.9.&Xd.p.l #XN.E R ) A.S.G.S.S.S.S.S.S.S.S.S.S.S.S.S.S.S.S.",
"S.S.S.S.S.S.S.S.S.G.S.S.S.S.K.OX&X*X&X-.d s g.e 4 0 5 q e 5.0.0.0.0.i.f.[.$XaX7.#.7X] R R ,.G.S.S.S.S.S.S.S.S.S.S.S.S.S.S.S.S.S.",
"S.S.S.S.S.S.S.S.S.G.G.G.G.S.G..X=X=X|.O ,.{.{.s.9 w q.e 6.5.0.0.e.s.3Xw.{.f.3X9.Q %.W R R ' L.G.S.G.S.S.S.S.S.S.S.S.S.S.S.S.S.S.",
"S.S.S.S.S.S.S.S.S.S.S.G.S.S.S.XX&X$X1.: .X&X&Xd.9 w e 0.0.5.6.0.q.[.w.q.k.qXpXO.@.N.R R R T <.S.S.S.S.S.G.G.S.S.S.S.S.S.S.S.S.S.",
"S.S.S.S.S.S.S.S.S.G.S.S.S.G.S.(.*X_.: ~.XX*X*Xf.e e q.0.0.7.k.f.K [.l.+Xw.qXz.N.6XN.R T R R ) <.G.G.S.S.G.G.S.G.S.S.S.S.S.S.S.S.",
"S.S.S.S.S.S.S.S.S.G.S.S.S.S.G.S.XXa.: G.G.h.[.8.e e e n A 6.$X;XO.5X{.k.qXr.7.A c.Q R R R R R >.G.G.G.S.S.G.S.S.S.S.S.S.S.S.S.S.",
"S.S.S.S.S.S.S.S.S.G.G.G.G.S.G.G.T.}.!.G.S.<.D A 7.0.7.u.qXD 7.| i.%X7X5Xi.H q.Q R R R R R R R ' D.S.S.S.S.S.G.S.S.S.S.S.S.S.S.S.",
"S.S.S.S.S.S.S.S.S.S.S.G.G.G.S.G.S.G.S.S.G., 5.[ A H A H K n.F iXV.} c.` R z.:X>X>Xv.R R M N R / <.S.G.G.S.G.S.S.S.S.S.S.S.S.S.S.",
"S.S.S.S.S.S.S.S.G.S.S.S.G.S.S.S.S.G.S.G.> e G A A 7.e u.@X6X{ R { R { R R { | c.M.2.Z.R U W T N g P.S.S.G.S.G.G.S.S.S.S.S.S.S.S.",
"S.S.S.S.S.S.S.S.G.S.S.S.S.S.G.G.S.G.G.S., y e.n 7.pXn.u.N.R R R R R R { R R { R y.-X#X2.%.Q R j M :.G.G.G.S.G.S.S.S.S.S.S.S.S.S.",
"S.S.S.S.S.S.S.S.S.S.S.S.S.S.S.S.S.S.S.S., t J 0.r.p.;X` R R R R R R R R R R R R R R ] +.].o.N / R ) A.G.G.S.S.S.S.S.S.S.S.S.S.S.",
"S.S.S.S.S.S.S.S.S.S.S.S.S.S.S.S.G.S.G.G.P.4.9.7.j.@X! R R R R R R R R R R R R R R R R R ( T L I R E f S.G.S.S.G.S.S.S.S.S.S.S.S.",
"S.S.S.S.S.S.S.S.S.S.S.S.S.S.S.S.S.G.G.S.S.t.n 6.0.R R R R R R R R R R R R R R R R R R R R R R E W R ' a G.S.G.S.S.S.S.S.S.S.S.S.",
"S.S.S.S.S.S.S.S.S.S.S.S.S.S.S.S.S.S.G.S.S.8.n %XF R R R R { R R R R R R R R R R R R R R R R { V N R W C G.G.S.S.S.S.S.S.S.S.S.S.",
"S.S.S.S.S.S.S.S.S.S.S.S.S.S.S.S.S.S.G.G.D.S 6.m.Q R R R R R R R R R R R R R R R R R R R R R R { ~ V R E A.G.G.S.S.S.S.S.S.S.S.S.",
"S.S.S.S.S.S.S.S.S.S.S.S.S.S.S.S.S.S.S.G.S.G D R R R R R R R R R R R R R R R R R R { R R R R R R W / T T *.G.S.S.S.S.S.S.S.S.S.S.",
"S.S.S.S.S.S.S.S.S.S.S.S.S.S.S.S.S.S.S.S.S.G n R R R R { R R R R W Y { R R R R R R R R R R R R R R R M N C G.G.S.S.S.S.S.S.S.S.S.",
"S.S.S.S.S.S.S.S.S.S.S.S.S.S.S.S.S.S.S.S.S.G 7.R R R R R R R R R E E _ R R R R R R R R R R R R R R R / ^ ' U.S.S.S.S.S.S.S.S.S.S.",
"S.S.S.S.S.S.S.S.S.S.S.S.S.S.S.S.G.S.G.G.S.M Q R R R R R R R R T R R T R R R R { R R R R R R R R R R R R U Z S.S.S.S.S.G.S.S.S.S.",
"S.S.S.S.S.S.S.S.S.S.S.S.S.S.S.S.G.S.G.S.G.Z J R R R R R R R W I { R { R R R R W E R W R R R R { R R R R U =.F.S.G.S.S.S.S.S.G.S.",
"S.S.S.S.S.S.S.S.S.S.S.S.S.S.S.S.S.S.S.S.S.:.D { { R R R R R R R / Q R R T T R R T / ( T R R R R R R R R T ^ <.S.G.S.G.S.S.S.S.S.",
"S.S.S.S.S.S.S.S.S.S.S.S.S.S.S.S.G.G.S.S.S.3.B.R R R R R R R R R ~ E R R / L R R R R R R R R R R R R R R R E P S.S.S.G.G.S.S.S.S.",
"S.S.S.S.S.S.S.S.S.S.S.S.S.S.S.S.S.S.G.G.F.>.R R R R R R R R R R R / R R / / R R R R R R R R U R R R R R R T P p S.S.S.S.G.S.S.G.",
"S.S.S.S.S.S.S.S.S.S.S.S.S.S.S.S.G.S.G.S.U.+.v.R R R R R R R R R R W R R T Y R R R R R R { R I R R { R R R R U &.G.G.S.S.G.G.S.S.",
"S.S.S.S.S.S.S.S.S.S.S.S.S.S.S.S.G.S.G.S.p c.B.%.R R R R R R R T ~ R R R W W R ^ L E I W Y R R R R R R R R R R ) S.G.G.S.S.S.S.S.",
"S.S.S.S.S.S.S.S.S.S.S.S.S.S.S.S.S.S.G.G.i %.B.c.R R R R R R R R R R R I T R R R E E R W T R R R R R R R R R R R A.S.G.S.S.G.G.S.",
"S.S.S.S.S.S.S.S.S.S.S.S.S.S.S.S.S.S.S.S.Y.) $.Q R R R R R R R R R R R T R R R R ~ W T R E R R R R R R R R R R ' *.S.G.S.S.S.G.G.",
"S.S.S.S.S.S.S.S.S.S.S.S.S.S.S.S.S.S.S.S.F...b.B.Q R R R R R R R R W T R R R R E L T / R ( / R R / j R R R R R T C S.G.S.S.G.S.G.",
"S.S.S.S.S.S.S.S.S.S.S.S.S.S.S.S.S.G.S.G.S.C @.C.@.R R R R R R R R E T R R R R U L W T U R T R R R R R R { R R R ) S.G.G.S.S.G.S.",
"S.S.S.S.S.S.S.S.S.S.S.S.S.S.S.S.G.S.S.G.G.3.c.C.#X{ R R R { R R R T ( E ^ Y R R / L I N R Q R L R R R R R R R R U i S.S.G.S.G.G.",
"S.S.S.S.S.S.S.S.S.S.S.S.S.S.S.S.G.G.S.S.S.3.@.} C.| { R R R R R R R R R W W R R R / T B I / Y Q R R R R R R R R T ,.S.S.S.G.S.G.",
"S.S.S.S.S.S.S.S.S.S.S.S.S.S.S.S.S.S.S.G.S.^.V.} @.b.R R R R R R R R R T ( R R R R R R ^ / U R R { R R L R R R R R ..F.S.S.G.S.S.",
"S.S.S.S.S.S.S.S.S.S.S.S.S.S.S.S.G.G.S.S.G.p x.b.o.#X) { R R R R R R R R R R R R R R R R R U W R R R R R R R R R R ..Y.S.G.G.S.S.",
"S.S.S.S.S.S.S.S.S.S.S.S.S.S.S.S.S.S.S.S.S.U.X.C.&...y.B.@.R R R R R R R R R R R R R R R R R I R R R R R R R R R R ' a G.G.S.S.G."
};
