/* XPM */
static char *_195f14503334a72838a8bdb70fb8224I5QqB7cXkSf4B4It[] = {
/* columns rows colors chars-per-pixel */
"64 64 222 2 ",
"   c #4B4131",
".  c #524936",
"X  c #4B402E",
"o  c #625948",
"O  c #706D5E",
"+  c #946936",
"@  c #D44C3B",
"#  c #ED4B3F",
"$  c #FE423E",
"%  c #FF4C3C",
"&  c #FF5B3B",
"*  c #FF5539",
"=  c #FF7D29",
"-  c #FE6535",
";  c #FD6B39",
":  c #FF3F41",
">  c #907252",
",  c #A37455",
"<  c #EF4643",
"1  c #FE4241",
"2  c #FF4A43",
"3  c #FF4B49",
"4  c #FE5245",
"5  c #FF544B",
"6  c #FF5C4C",
"7  c #FF5E51",
"8  c #FC6548",
"9  c #FF6552",
"0  c #FF6C51",
"q  c #FE7253",
"w  c #FE7A56",
"e  c #FE7E59",
"r  c #FB7858",
"t  c #F26C50",
"y  c #FF7D75",
"u  c #D6744F",
"i  c #A18532",
"p  c #FF9A1F",
"a  c #FFBA0E",
"s  c #FFA51C",
"d  c #FEBA17",
"f  c #FF8D23",
"g  c #FF8527",
"h  c #FE9026",
"j  c #FF893C",
"k  c #FE9D3C",
"l  c #FF923D",
"z  c #DABD24",
"x  c #D5BD22",
"c  c #C3AE32",
"v  c #CBB529",
"b  c #FFAD2E",
"n  c #FFB626",
"m  c #FFBA29",
"M  c #FFA533",
"N  c #FFAB31",
"B  c #FEA53B",
"V  c #FFBD35",
"C  c #FEB739",
"Z  c #E3BA2C",
"A  c #DDC21C",
"S  c #DEC417",
"D  c #EDCF0E",
"F  c #EDD10C",
"G  c #F5D606",
"H  c #F6D805",
"J  c #FEDE01",
"K  c #F4D40B",
"L  c #FED50C",
"P  c #FFDA0B",
"I  c #FAD706",
"U  c #E1C716",
"Y  c #E6CC13",
"T  c #EBCD12",
"R  c #E2C619",
"E  c #E6C719",
"W  c #FFCC1B",
"Q  c #F8C61B",
"!  c #FED414",
"~  c #FED01B",
"^  c #F9DA13",
"/  c #FFCE0F",
"(  c #FEE001",
")  c #FFE00C",
"_  c #FFE113",
"`  c #FEE11E",
"'  c #D9C023",
"]  c #FFCB24",
"[  c #FFC62B",
"{  c #FFCB29",
"}  c #EED326",
"|  c #FFD020",
" . c #FEC334",
".. c #FFD336",
"X. c #E3C82F",
"o. c #FEE424",
"O. c #FFE42D",
"+. c #FFE63B",
"@. c #FFE635",
"#. c #AB8F51",
"$. c #BFAF57",
"%. c #B2A76C",
"&. c #C79745",
"*. c #FF854E",
"=. c #FE8C4C",
"-. c #FF9543",
";. c #FF9A43",
":. c #FE9349",
">. c #FE8354",
",. c #FE8B53",
"<. c #FF815B",
"1. c #FE8B5C",
"2. c #FF9856",
"3. c #EA9C52",
"4. c #C8AC4F",
"5. c #FEA646",
"6. c #FFB945",
"7. c #FFB64A",
"8. c #FEB847",
"9. c #FEAD5A",
"0. c #FFA654",
"q. c #FEB155",
"w. c #FFBA5B",
"e. c #E9B047",
"r. c #C29762",
"t. c #FE8461",
"y. c #FE8E65",
"u. c #FF956D",
"i. c #FF9F6F",
"p. c #FF9D79",
"a. c #E79867",
"s. c #FFA666",
"d. c #FFB769",
"f. c #FFA377",
"g. c #FFBA7E",
"h. c #FFD747",
"j. c #FFC74A",
"k. c #FDE444",
"l. c #FEE94B",
"z. c #FFEB40",
"x. c #FFEC56",
"c. c #FFF059",
"v. c #DCCB71",
"b. c #FFD966",
"n. c #FFC87C",
"m. c #E7D46B",
"M. c #FFEA68",
"N. c #FEF366",
"B. c #FEEE76",
"V. c #FFF578",
"C. c #FF7C89",
"Z. c #FF799A",
"A. c #FF7EB5",
"S. c #FE7ABC",
"D. c #FF75BE",
"F. c #FF74C6",
"G. c #FE7AC6",
"H. c #FF74C9",
"J. c #FF7CC9",
"K. c #BC948A",
"L. c #C48384",
"P. c #D29788",
"I. c #FF8A84",
"U. c #FE9687",
"Y. c #FF8C94",
"T. c #FF8C9C",
"R. c #FF869B",
"E. c #FE9996",
"W. c #E19A94",
"Q. c #C4A98B",
"!. c #FFA684",
"~. c #FFBA88",
"^. c #FFA798",
"/. c #FFBD9B",
"(. c #FFB496",
"). c #EBB38F",
"_. c #FF82AA",
"`. c #FF88A2",
"'. c #FD85B1",
"]. c #FD90BA",
"[. c #FAAAA8",
"{. c #FFB8A9",
"}. c #FDBDBE",
"|. c #FEB3BC",
" X c #F3B2AE",
".X c #FEC79D",
"XX c #FED38A",
"oX c #FFED88",
"OX c #FFF090",
"+X c #F5EE90",
"@X c #FFC8A6",
"#X c #FFD9AA",
"$X c #FFC5B4",
"%X c #FEC8B4",
"&X c #FEC5BC",
"*X c #FDC8BA",
"=X c #FFDFB0",
"-X c #E1DABE",
";X c #FFE7A5",
":X c #FFEBBB",
">X c #FEF5AF",
",X c #FE83CC",
"<X c #FF88C7",
"1X c #FE99C1",
"2X c #FEBCC0",
"3X c #FFC4C1",
"4X c #F3CEC8",
"5X c #FFD9C8",
"6X c #FFE9CF",
"7X c #FFF8D6",
"8X c #FFF2D4",
"9X c #FFD3F0",
"0X c #FEF0E5",
"qX c #FEEEF9",
"wX c #FEF4FB",
"eX c #FEFDFB",
"rX c #FFFAFE",
"tX c #FFFDFF",
"yX c #FEFEFE",
"uX c #FEF9FA",
"iX c #FFF6F7",
"pX c #FBE6E1",
/* pixels */
"F.F.F.F.F.F.F.F.F.F.F.F.F.F.F.F.F.F.F.F.F.F.F.F.F.F.F.F.F.F.F.F.F.F.F.F.F.F.F.F.F.F.F.F.F.F.F.F.F.F.H.F.F.F.F.F.F.F.F.H.F.F.F.F.",
"F.F.F.F.F.F.F.F.F.F.F.F.F.F.F.F.F.F.F.F.F.F.F.F.F.F.F.F.F.F.F.F.F.F.F.F.F.F.F.F.F.F.F.F.F.F.F.F.F.F.F.F.H.H.F.F.F.H.F.F.F.F.F.F.",
"F.F.F.F.F.F.F.F.F.F.F.F.F.F.F.F.F.F.F.F.F.F.F.F.F.F.F.F.F.F.F.F.F.F.F.F.F.F.F.F.F.F.F.F.F.F.F.F.F.F.F.F.F.H.F.F.F.F.F.F.H.F.F.F.",
"F.F.F.F.F.F.F.F.F.F.F.F.F.F.F.F.F.F.F.F.F.F.F.F.F.F.F.F.F.F.F.F.F.F.F.F.F.F.F.F.F.F.F.F.F.F.F.F.,XwXwXqXqXqXqXqXqXuXuXuXJ.F.F.F.",
"F.F.F.F.F.F.F.F.F.F.F.F.F.F.F.F.F.F.F.F.F.F.F.F.F.F.F.F.F.F.F.F.F.F.F.F.F.F.F.F.F.F.F.F.F.F.F.F.,XrXtXwXrXuXuXrXrXqXrXtXH.F.F.F.",
"F.F.F.F.F.F.F.F.F.F.F.F.F.F.F.F.F.F.F.F.F.F.F.F.F.F.F.F.F.F.F.F.F.F.F.F.F.F.F.F.F.F.F.F.F.F.F.F.J.tXtXF.F.,X,XJ.F.F.,XuXF.F.H.F.",
"F.F.F.F.F.F.F.F.F.F.F.F.F.F.F.F.F.F.F.F.F.F.F.F.F.F.F.F.F.F.F.F.F.F.F.F.F.F.F.F.F.F.F.F.F.F.F.F.G.tXtXF.F.F.F.F.F.H.H.G.F.F.F.F.",
"F.F.F.F.F.F.F.F.F.F.F.F.F.F.F.F.F.F.F.F.F.F.F.F.F.F.F.F.F.F.F.F.F.F.F.F.F.F.F.F.F.F.F.F.F.F.F.F.H.tXtXF.F.F.F.F.F.F.F.F.F.F.F.F.",
"F.F.F.F.F.F.F.F.F.F.F.F.F.F.F.F.F.F.F.F.F.F.F.F.F.F.F.F.F.F.F.F.F.F.F.F.F.F.F.F.F.F.F.F.F.F.F.F.F.eXtXF.F.F.J.J.F.F.F.F.F.F.F.F.",
"F.F.F.F.F.F.F.F.F.F.F.F.F.F.F.F.F.F.F.F.F.F.F.F.F.F.F.F.F.F.F.F.F.F.F.F.F.F.F.F.F.F.F.F.F.F.F.F.F.tXtXtXtXwXtXtX,XF.F.F.F.H.F.F.",
"F.F.F.F.F.F.F.F.F.F.F.F.F.F.F.F.F.F.F.F.F.F.F.F.F.F.F.F.F.F.F.F.F.F.F.H.F.F.F.F.F.F.F.F.F.F.F.F.F.tXeXtXtXtXtXtX<XF.F.H.F.F.F.F.",
"F.F.F.F.F.F.F.F.F.F.F.F.F.F.F.F.F.F.F.F.F.F.F.F.F.F.F.F.F.F.F.F.F.F.F.F.F.F.F.F.F.F.F.F.F.F.F.F.F.rXtXH.J.G.J.,XJ.F.H.F.F.F.H.F.",
"F.F.F.F.F.F.F.F.F.F.F.F.F.F.F.F.F.F.F.F.F.F.F.F.F.F.F.H.F.F.F.F.F.F.F.F.F.F.F.F.F.F.F.F.F.F.F.F.F.rXtXH.H.F.F.F.F.F.F.H.F.F.F.F.",
"F.F.F.F.F.F.F.F.F.F.F.F.F.F.F.F.F.F.F.F.F.F.F.F.F.F.F.F.F.F.F.F.F.F.F.H.F.F.F.H.F.F.F.F.F.F.F.F.F.rXtXF.F.F.F.F.F.F.F.F.F.F.F.F.",
"F.F.F.F.F.F.F.F.F.F.F.F.F.F.F.F.F.F.F.F.F.F.F.F.F.F.F.F.F.F.F.F.F.F.F.F.F.F.F.F.F.F.F.F.F.F.F.F.F.eXrXF.F.H.F.F.F.F.,X9XF.F.H.F.",
"F.F.F.F.F.F.F.F.F.F.F.F.F.F.F.F.F.F.F.F.F.F.F.F.F.S.A.`.Y.Y.R._.'.R._.F.H.F.H.F.F.F.F.F.F.F.F.F.H.uXtXuXwXuXuXwXwXrXeXtX,XF.F.F.",
"F.F.F.F.F.F.F.F.F.F.F.F.F.F.F.F.F.H.F.F.F.F.F.S.`.i.8.m W W ]  .6.[  .s.F.F.F.H.F.F.F.F.F.F.F.F.F.wXeXrXtXeXtXtXtXtXtXrX,XF.F.F.",
"F.F.F.F.F.F.F.F.F.F.F.F.F.F.F.F.H.F.F.F.H.F.A.i.n s f g f a I J J J J ! 7.F.F.F.F.F.F.F.F.H.F.F.F.J.J.H.F.F.F.F.J.F.F.,XH.F.F.F.",
"F.F.F.F.F.F.F.F.F.F.F.F.F.F.F.F.F.F.F.F.F._.C s - $ 1 1 1 & p a J J J P L q.G.F.F.F.H.F.F.F.F.H.F.F.H.F.F.F.F.F.F.F.F.F.F.F.F.F.",
"F.F.F.F.F.F.F.F.F.F.F.F.F.F.F.F.F.F.F.H.F.m f % $ 1 1 1 1 1 * - l L J +.O.I V S.F.F.F.F.F.F.F.F.F.F.F.F.F.F.F.F.H.F.F.H.F.H.F.F.",
"F.F.F.F.F.F.F.F.F.F.F.F.F.F.F.F.F.F.F.F.5.= 2 $ 1 : 1 1 1 1 $ 1 % 2 a +.z.P ! 6.F.F.H.F.F.F.H.F.F.F.H.H.H.F.H.F.F.F.F.F.F.F.F.F.",
"F.F.F.F.F.F.F.F.F.F.F.F.F.F.F.F.F.F.F.Y.f % 1 : 1 1 1 1 : 1 1 % & & 1 % h.oXJ I i.H.F.H.F.F.F.F.F.F.F.F.F.F.F.F.F.H.F.F.F.H.F.F.",
"F.F.F.F.F.F.F.F.F.F.F.F.F.F.F.F.F.H.F.k * 1 $ 1 1 1 1 1 $ $ : @ # * = & Q ` J I [ Y.F.F.F.F.F.F.F.F.H.F.F.F.F.F.F.F.F.F.F.F.F.H.",
"F.F.F.F.F.F.F.F.F.F.F.F.F.F.F.F.F.F.R.p 1 1 1 1 1 , o O t P.< @ # + ; 4 g = J J P ] U.F.F.H.F.F.F.F.F.F.F.F.F.F.F.F.F.F.F.F.F.F.",
"F.F.F.F.F.F.F.F.F.H.F.F.F.F.F.F.F.F.i.2.6 1 1 1 @ .     > 4X< 1 1 ; h 2 - ..x.O.J ~ V F.F.F.F.F.F.F.F.F.F.F.F.F.F.F.F.F.F.F.F.F.",
"F.F.F.F.F.F.F.F.F.F.F.F.H.F.F.F.F.H.(.&XE.r 1 1 Q.. X . K.I.3 2 2 3 - j p n.B.@.J L  .Y.H.F.F.F.F.F.F.F.F.F.F.F.F.F.F.F.F.F.F.F.",
"F.F.F.F.F.F.F.F.F.F.F.F.F.F.F.F.F.1X*X{.|.[.9 1 I. XW.}.[.9 9 3 3 3 2 j m @X/ _ ) P ~ 9.F.F.F.F.F.F.F.F.F.F.F.F.F.F.F.F.F.F.F.F.",
"F.F.F.F.F.F.F.F.F.F.H.F.F.H.F.F.<X&X.X3X&X$XI.3 4 9 3 3 3 5 3 3 w 7 4 M =.6.=.:XOX! ! [ F.F.F.F.F.F.F.F.F.F.F.F.F.F.F.F.F.F.F.F.",
"F.F.F.F.F.F.F.F.F.F.F.F.F.F.H.].*X$X&X&X*X&Xf.5 5 1 1 3 5 0 5 q q 3 q t.2.:Xd.` P L J J F.F.F.F.F.F.F.F.F.F.F.F.F.F.F.F.F.F.F.F.",
"F.F.F.F.F.F.F.F.F.F.F.F.H.F.F./..X*X&X&X3X&X#.u 3 4 5 q q 6 3 5 q ; l 2.=..X;XL M.J I J f.F.F.F.F.F.F.F.F.F.F.F.F.F.F.F.F.F.F.F.",
"F.F.F.F.F.F.F.F.F.F.F.F.F.F.F.@X*X&X3X$X*X).3.w e 5 6 1 9 9 8 *.=.*.,.:.$Xy.0.d OXM.! J W S.F.F.F.F.F.F.F.F.F.F.F.F.F.F.F.F.F.F.",
"F.F.F.F.F.F.F.F.F.F.F.F.F.F.G.@X%X*X$Xr.&.i a.e 4 0 5 q e *.>.>.>.>.0.u.(.@XpX;.O.8X! J J s.F.F.F.F.F.F.F.F.F.F.F.F.F.F.F.F.F.F.",
"F.F.F.F.F.F.F.F.F.F.H.F.F.F.F.{.*X$X[., r.).^.<.0 w <.e =.*.e e ,.t.5X1.!.u.5X:._ @.L J J ! A.F.F.H.F.F.F.F.F.F.F.F.F.F.F.F.F.F.",
"F.F.F.F.F.F.F.F.F.F.F.F.F.F.H.}.$X@XL.>  X%X$Xu.0 w e >.>.,.=.<.<.(.1.<.p.0XiX{ o.M.J J J I U.F.F.F.F.F.H.F.F.F.F.F.F.F.F.F.F.F.",
"F.F.F.F.F.F.F.F.F.F.F.F.F.F.F.1X&XQ.> W.}.&X&Xu.e e <.>.>.-.f.s.C /.g.XX1.0Xh.M.7XM.J I J J ] Y.F.F.H.F.F.F.F.F.F.F.F.F.F.F.F.F.",
"F.F.F.F.F.F.F.F.F.F.F.F.F.F.F.D.2XP., F.F.d./.k e e e k b =.@X;X..6X~.f.0X2.-.N l.) J J J J J q.F.F.F.H.F.H.F.F.F.F.F.F.F.F.F.F.",
"F.F.F.F.F.F.F.F.F.F.F.F.F.F.F.F.<X|.].H.F.U.n N -.>.;.7.0Xn ;._ 5.#X8X6X0.M <.I J J J J J J J ! F.F.F.F.F.F.H.F.F.F.F.F.F.F.F.F.",
"F.F.F.F.F.F.F.F.F.F.F.F.F.F.F.H.F.F.F.F.F.C.=.L b M b M V b.m eXB.) k.W J h.:X>X>Xx.J J v z J W U.F.H.F.F.F.F.F.F.F.F.F.F.F.F.F.",
"F.F.F.F.F.F.F.F.H.F.F.F.F.F.F.F.F.H.F.H.Z.<.5.N b -.e 7.XX7X( J J J J J J ( _ l.m.%.v.J K G J Z e.S.F.F.F.F.H.F.F.F.F.F.F.F.F.F.",
"F.F.F.F.F.F.F.F.F.F.F.F.F.F.H.F.F.F.F.F.C.y ,.k -.iXb.8.M.J J J J J J J J J ( J $.-X+X%.O.) J ' Z 9.F.F.F.F.F.F.F.F.F.F.F.F.F.F.",
"F.F.F.F.F.F.F.F.F.F.F.F.F.F.F.F.F.F.F.F.Z.t.B >.2.w.;XW J J J J J J J J J J J J J J ^ X.Q.} x T J ] S.F.H.F.F.F.F.F.F.F.F.F.F.F.",
"F.F.F.F.F.F.F.F.F.F.F.F.F.F.F.F.F.F.F.F.D.2.:.-.d.oXI J J J J J J J J J J J J J J J J J R G A D J ! 7.F.H.H.F.H.F.F.F.F.F.F.F.F.",
"F.F.F.F.F.F.F.F.F.F.F.F.F.F.F.F.F.F.F.F.F.:.k =.>.J J J J J J J J J J J J J J J J J J J J J J K G J ~ Y.F.F.F.F.F.F.F.F.F.F.F.F.",
"F.F.F.F.F.F.F.F.F.F.F.F.F.F.F.F.F.F.F.F.F.;.k #Xm J J J J ( J J J J J J J J J J J J J J J J ( c z J L 7.H.F.F.F.F.F.F.F.F.F.F.F.",
"F.F.F.F.F.F.F.F.F.F.F.F.F.F.F.F.F.F.F.H.F.b :.n.P J J J J J J J J J J J J J J J J J J J ( J J ( U c J L S.F.F.H.F.F.F.F.F.F.F.F.",
"F.F.F.F.F.F.F.F.F.F.F.F.F.F.F.F.F.F.F.F.F.B n J J J J J J J J J J J J J J J J J J J J J J J J J I T J I p.F.F.F.F.F.F.F.F.F.F.F.",
"F.F.F.F.F.F.F.F.F.F.F.F.F.F.F.F.F.F.F.F.F.C k J J J J J J J J J G G ) J J J J J J J J J J J J J J J v z 6.F.F.F.F.F.F.F.F.F.F.F.",
"F.F.F.F.F.F.F.F.F.F.F.F.F.F.F.F.F.F.F.F.F.5.-.J J J J J J J J J K K E J J J J J J J J J J J J J J J T Q ! _.F.F.F.F.F.F.F.F.F.F.",
"F.F.F.F.F.F.F.F.F.F.F.F.F.F.F.F.F.F.F.F.F.V I J J J J J J J J H J J H J J J J J J J J J J J J J J J J J ! 7.F.F.F.F.F.F.F.F.F.F.",
"F.F.F.F.F.F.F.F.F.F.F.F.F.F.F.F.F.F.F.F.H.7.B J J J J J J J G D ( J J J J J J G K J H J J J J ( J J J J ! #.S.F.H.F.F.F.F.F.F.F.",
"F.F.F.F.F.F.F.F.F.F.F.F.F.F.F.F.F.F.F.F.F.9.n J ( J J J J J J J T J J J H H J J H T R H J J J J J J J J I Y U.H.F.F.F.F.F.F.F.F.",
"F.F.F.F.F.F.F.F.F.F.F.F.F.F.F.F.F.F.H.F.F.~.N.J J J J J J J J J U K J J T A J J J J J J J J J J ( J J J J ! { F.F.F.F.F.F.F.F.F.",
"F.F.F.F.F.F.F.F.F.F.F.F.F.F.F.F.F.F.F.F.S.q.J J J J J J J J J J J T J J T T J J J J J J J J F J J J J J J J E L.F.F.F.F.F.F.F.F.",
"F.F.F.F.F.F.F.F.F.F.F.F.F.F.F.F.F.F.F.F._.h.x.J J J J J J J J J J G J J H G J J J J J J ( J D J J J J J J J K a.H.F.F.F.F.F.F.F.",
"F.F.F.F.F.F.F.F.F.F.F.F.F.F.F.F.F.F.H.F.R.k.N.@.J J J J J J J H U J J J G G J Y A K D G G J J J J J J J J J J W F.F.F.F.F.F.F.F.",
"F.F.F.F.F.F.F.F.F.F.F.F.F.F.F.F.F.F.F.F.`.k.N.z.J J J J J J J J J J J D H J J J K K J G H J J J J J J J J J J J A.F.H.F.F.F.F.F.",
"F.F.F.F.F.F.F.F.F.F.F.F.F.F.F.F.F.F.F.F.'.| +.) J J J J J J J J J J J H J J J J U G H J K J J J J I J J J J J ! p.H.F.F.H.F.F.F.",
"F.F.F.F.F.F.F.F.F.F.F.F.F.F.F.F.F.F.H.F.S.[ c.N.P J J J J J J J J G H J J J J K A H T J R T J J T x J J J J J P 7.F.F.F.F.F.F.F.",
"F.F.F.F.F.F.F.F.F.F.F.F.F.F.F.F.F.F.F.F.F.6.o.V.o.J J J J J J J J K H J J J J F A G H F J H J J J J J J ( J J J ] F.F.F.F.F.F.F.",
"F.F.F.F.F.F.F.F.F.F.F.F.F.F.F.F.H.F.F.F.F.~.l.V.OX( J J J ( J J J H E K Y G J J T A D x J I J S J J J J J J J J ! `.F.F.F.F.F.F.",
"F.F.F.F.F.F.F.F.F.F.F.F.F.F.F.F.H.H.F.F.F.!.o.) V._ ( J J ( J J J J J J H G J J J T H z D T G I J J J J J J J J I s.F.F.F.F.F.F.",
"F.F.F.F.F.F.F.F.F.F.F.F.F.F.F.F.F.F.F.F.F.^.oX) o.c.J J J J J J J J J H R J J J J J J Y Y F J J J J J S J J J J J  .F.F.F.F.F.F.",
"F.F.F.F.F.F.F.F.F.F.F.F.F.F.F.F.F.F.F.F.F.T.b.c.} +XR ) J J J J J J J J J J J J J J J J J F G J J J J J J J J J J { _.F.F.F.F.F.",
"F.F.F.F.F.F.F.F.F.F.F.F.F.F.F.F.F.F.F.F.F._.j.V.#.' 4.N.o.J ( J J J J J J J J J J J J J J J D J J J J J J J ( J J ! Y.F.F.F.F.F."
};
